<?xml version="1.0" encoding="utf-8"?>
<!-- Generator: Adobe Illustrator 25.0.0, SVG Export Plug-In . SVG Version: 6.00 Build 0)  -->
<svg version="1.1" id="Layer_1" xmlns="http://www.w3.org/2000/svg" xmlns:xlink="http://www.w3.org/1999/xlink" x="0px" y="0px"
	 viewBox="0 0 256 288" style="enable-background:new 0 0 256 288;" xml:space="preserve">
<style type="text/css">
	.st0{fill:#A179DC;}
	.st1{fill:#280068;}
	.st2{fill:#390091;}
	.st3{fill:#FFFFFF;}
</style>
<g>
	<path class="st0" d="M255.6,204.6c0-2-0.4-3.7-1.3-5.2c-0.8-1.5-2.1-2.7-3.7-3.7c-13.8-8-27.6-16-41.4-24c-3.7-2.2-7.3-2.1-11,0.1
		c-5.5,3.3-33,19.1-41.2,23.9c-3.4,2-5,5-5,8.9c0,16.1,0,32.2,0,48.2c0,1.9,0.4,3.6,1.2,5.1c0.8,1.5,2.1,2.8,3.8,3.8
		c8.2,4.8,35.7,20.6,41.2,23.9c3.7,2.2,7.3,2.3,11,0.1c13.8-8,27.6-16,41.4-24c1.7-1,3-2.3,3.8-3.8c0.8-1.5,1.2-3.2,1.2-5.1
		C255.6,252.8,255.6,220.7,255.6,204.6"/>
	<path class="st1" d="M203.9,228.6l-50.7,29.4c0.8,1.5,2.1,2.8,3.8,3.8c8.2,4.8,35.7,20.6,41.2,23.9c3.7,2.2,7.3,2.3,11,0.1
		c13.8-8,27.6-16,41.4-24c1.7-1,3-2.3,3.8-3.8L203.9,228.6"/>
	<path class="st2" d="M255.6,204.6c0-2-0.4-3.7-1.3-5.2l-50.4,29.2l50.4,29.4c0.8-1.5,1.2-3.2,1.2-5.1
		C255.6,252.8,255.6,220.7,255.6,204.6"/>
	<path class="st3" d="M233.8,217.6v5.5h5.5v-5.5h2.7v5.5h5.5v2.7H242v5.5h5.5v2.7H242v5.5h-2.7v-5.5h-5.5v5.5h-2.7v-5.5h-5.5v-2.7
		h5.5v-5.5h-5.5v-2.7h5.5v-5.5H233.8z M239.3,225.8h-5.5v5.5h5.5V225.8z"/>
	<path class="st3" d="M204.1,190c14.2,0,26.7,7.8,33.3,19.3l-0.1-0.1l-16.8,9.7c-3.3-5.6-9.4-9.4-16.3-9.5l-0.2,0
		c-10.6,0-19.2,8.6-19.2,19.3c0,3.5,0.9,6.7,2.5,9.6c3.3,5.8,9.5,9.7,16.6,9.7c7.2,0,13.4-4,16.7-9.8l-0.1,0.1l16.7,9.7
		c-6.6,11.5-18.9,19.2-32.9,19.4l-0.4,0c-14.3,0-26.8-7.8-33.4-19.4c-3.2-5.7-5.1-12.3-5.1-19.3C165.6,207.3,182.8,190,204.1,190z"
		/>
</g>
</svg>
